<svg width="25" height="12" viewBox="0 0 25 12" fill="none" xmlns="http://www.w3.org/2000/svg">
<path opacity="0.35" d="M2.66718 0.833252H19.3332C20.5298 0.833252 21.5002 1.80363 21.5002 3.00024V9.00024C21.5 10.1967 20.5297 11.1663 19.3332 11.1663H2.66718C1.47067 11.1663 0.500359 10.1967 0.500183 9.00024V3.00024L0.510925 2.77856C0.621779 1.6859 1.54527 0.833252 2.66718 0.833252Z" stroke="black"/>
<path opacity="0.4" d="M23.0002 3.99994V7.99994C23.8049 7.66116 24.3282 6.87307 24.3282 5.99994C24.3282 5.12681 23.8049 4.33872 23.0002 3.99994Z" fill="black"/>
<path d="M2.00018 3.43325C2.00018 2.82574 2.49267 2.33325 3.10018 2.33325H18.9002C19.5077 2.33325 20.0002 2.82574 20.0002 3.43325V8.56658C20.0002 9.1741 19.5077 9.66659 18.9002 9.66659H3.10018C2.49267 9.66659 2.00018 9.1741 2.00018 8.56659V3.43325Z" fill="black"/>
</svg>
