<svg width="25" height="25" viewBox="0 0 25 25" fill="none" xmlns="http://www.w3.org/2000/svg">
<path d="M12.9 1.49976C18.9751 1.49976 23.9 6.42462 23.9 12.4998C23.9 18.5749 18.9751 23.4998 12.9 23.4998C6.82487 23.4998 1.9 18.5749 1.9 12.4998C1.9 6.42462 6.82487 1.49976 12.9 1.49976ZM16.9586 7.09937C14.9307 6.94214 14.2694 7.79138 13.3404 12.6873C13.3364 12.668 13.0431 11.303 11.0133 8.99585C8.96901 6.67225 7.88457 7.15913 6.94102 8.17065C5.78865 9.40515 6.24826 11.668 7.12363 13.738C7.67991 15.0548 9.14971 17.442 11.0133 18.5476C13.5834 20.0709 17.1211 19.2239 18.7242 14.4568C20.3884 9.51131 18.5442 7.22232 16.9586 7.09937Z" fill="#21201F"/>
</svg>
