<svg width="25" height="25" viewBox="0 0 25 25" fill="none" xmlns="http://www.w3.org/2000/svg">
<path d="M10.9787 12.0459L13.3908 12.0557L15.7942 7.98438H24.3V10.7119L22.3029 11.8027L21.0842 16.6182C20.4898 18.7581 20.1931 19.8285 19.5227 20.584C19.145 21.0095 18.6871 21.3574 18.176 21.6074C17.2687 22.0511 16.1577 22.0508 13.9367 22.0508H10.6643C8.44311 22.0508 7.33236 22.0513 6.42502 21.6074C5.91397 21.3574 5.45699 21.0095 5.07932 20.584C4.40884 19.8285 4.11129 18.7583 3.51682 16.6182L2.29904 11.8027L0.300018 10.7119V7.98438H10.383L14.6115 1H17.6594L10.9787 12.0459Z" fill="#21201F"/>
</svg>
