<svg width="25" height="25" viewBox="0 0 25 25" fill="none" xmlns="http://www.w3.org/2000/svg">
<path fill-rule="evenodd" clip-rule="evenodd" d="M13.6022 5.99063C13.5 6.37213 13.5 6.83712 13.5 7.76709C13.5 8.69706 13.5 9.16205 13.6022 9.54355C13.8796 10.5788 14.6883 11.3875 15.7235 11.6649C16.105 11.7671 16.57 11.7671 17.5 11.7671C18.43 11.7671 18.895 11.7671 19.2765 11.6649C20.3117 11.3875 21.1204 10.5788 21.3978 9.54355C21.5 9.16205 21.5 8.69706 21.5 7.76709C21.5 6.83712 21.5 6.37213 21.3978 5.99063C21.1204 4.95536 20.3117 4.14671 19.2765 3.86931C18.895 3.76709 18.43 3.76709 17.5 3.76709C16.57 3.76709 16.105 3.76709 15.7235 3.86931C14.6883 4.14671 13.8796 4.95536 13.6022 5.99063ZM13.6022 15.9906C13.5 16.3721 13.5 16.8371 13.5 17.7671C13.5 18.6971 13.5 19.162 13.6022 19.5435C13.8796 20.5788 14.6883 21.3875 15.7235 21.6649C16.105 21.7671 16.57 21.7671 17.5 21.7671C18.43 21.7671 18.895 21.7671 19.2765 21.6649C20.3117 21.3875 21.1204 20.5788 21.3978 19.5435C21.5 19.162 21.5 18.6971 21.5 17.7671C21.5 16.8371 21.5 16.3721 21.3978 15.9906C21.1204 14.9554 20.3117 14.1467 19.2765 13.8693C18.895 13.7671 18.43 13.7671 17.5 13.7671C16.57 13.7671 16.105 13.7671 15.7235 13.8693C14.6883 14.1467 13.8796 14.9554 13.6022 15.9906ZM3.5 17.7671C3.5 16.8371 3.5 16.3721 3.60222 15.9906C3.87962 14.9554 4.68827 14.1467 5.72354 13.8693C6.10504 13.7671 6.57003 13.7671 7.5 13.7671C8.42997 13.7671 8.89496 13.7671 9.27646 13.8693C10.3117 14.1467 11.1204 14.9554 11.3978 15.9906C11.5 16.3721 11.5 16.8371 11.5 17.7671C11.5 18.6971 11.5 19.162 11.3978 19.5435C11.1204 20.5788 10.3117 21.3875 9.27646 21.6649C8.89496 21.7671 8.42997 21.7671 7.5 21.7671C6.57003 21.7671 6.10504 21.7671 5.72354 21.6649C4.68827 21.3875 3.87962 20.5788 3.60222 19.5435C3.5 19.162 3.5 18.6971 3.5 17.7671ZM3.60222 5.99063C3.5 6.37213 3.5 6.83712 3.5 7.76709C3.5 8.69706 3.5 9.16205 3.60222 9.54355C3.87962 10.5788 4.68827 11.3875 5.72354 11.6649C6.10504 11.7671 6.57003 11.7671 7.5 11.7671C8.42997 11.7671 8.89496 11.7671 9.27646 11.6649C10.3117 11.3875 11.1204 10.5788 11.3978 9.54355C11.5 9.16205 11.5 8.69706 11.5 7.76709C11.5 6.83712 11.5 6.37213 11.3978 5.99063C11.1204 4.95536 10.3117 4.14671 9.27646 3.86931C8.89496 3.76709 8.42997 3.76709 7.5 3.76709C6.57003 3.76709 6.10504 3.76709 5.72354 3.86931C4.68827 4.14671 3.87962 4.95536 3.60222 5.99063Z" fill="#21201F"/>
</svg>
