<svg width="25" height="25" viewBox="0 0 25 25" fill="none" xmlns="http://www.w3.org/2000/svg">
<g clip-path="url(#clip0_1005_11986)">
<path d="M15.5 21.2672C15.4998 23.2001 12.3658 24.7672 8.5 24.7672C4.63415 24.7672 1.50024 23.2001 1.5 21.2672V19.7672C1.50042 20.8716 4.63427 21.7672 8.5 21.7672C12.3657 21.7672 15.4996 20.8716 15.5 19.7672V21.2672ZM14.8848 1.97908C15.1274 1.78966 15.4435 1.72285 15.7422 1.79744L19.7422 2.79744L19.2578 4.73689L16.5 4.04842V5.78279C20.4656 5.89084 23.4995 6.64037 23.5 7.76717V9.76717L22.5 10.7672L20.7256 20.0826C20.5754 20.8711 20.4879 21.7539 19.8613 22.2554C19.372 22.6469 18.508 23.0386 16.9834 23.1949C17.3001 22.6357 17.4999 21.9957 17.5 21.2672V17.6236C17.4998 16.5892 17.0245 15.709 16.5068 15.067C15.9717 14.4034 15.2617 13.8269 14.4756 13.357C12.9448 12.4422 10.9132 11.8048 8.69043 11.7701L8.5 10.7672L7.5 9.76717V7.82674C7.50121 6.5986 10.5348 5.88296 14.5 5.78084V2.76717C14.5 2.45924 14.6421 2.16859 14.8848 1.97908ZM8.5 13.7672C12.366 13.7672 15.5 15.9677 15.5 17.6246C15.4997 19.2812 12.3658 19.7672 8.5 19.7672C4.63421 19.7672 1.50033 19.2812 1.5 17.6246C1.5 15.9677 4.63401 13.7672 8.5 13.7672Z" fill="#21201F"/>
</g>
<defs>
<clipPath id="clip0_1005_11986">
<rect width="24" height="24" fill="white" transform="translate(0.5 0.76709)"/>
</clipPath>
</defs>
</svg>
