<svg width="16" height="12" viewBox="0 0 16 12" fill="none" xmlns="http://www.w3.org/2000/svg">
<path fill-rule="evenodd" clip-rule="evenodd" d="M8.33067 2.60789C10.5466 2.60799 12.6777 3.45943 14.2837 4.98623C14.4046 5.1041 14.5979 5.10261 14.717 4.98289L15.873 3.81623C15.9333 3.7555 15.9669 3.67325 15.9664 3.58767C15.9659 3.50209 15.9313 3.42024 15.8703 3.36023C11.6552 -0.67932 5.00543 -0.67932 0.790334 3.36023C0.729275 3.4202 0.694631 3.50202 0.694068 3.5876C0.693505 3.67318 0.727069 3.75546 0.787334 3.81623L1.94367 4.98289C2.0627 5.1028 2.25614 5.10428 2.377 4.98623C3.98315 3.45933 6.11456 2.60789 8.33067 2.60789ZM8.33067 6.40356C9.54816 6.40349 10.7222 6.85602 11.6247 7.67323C11.7467 7.78921 11.939 7.78669 12.058 7.66756L13.2127 6.50089C13.2735 6.4397 13.3072 6.35668 13.3063 6.27042C13.3055 6.18415 13.27 6.10184 13.208 6.04189C10.4598 3.48551 6.20387 3.48551 3.45567 6.04189C3.39359 6.10184 3.35817 6.18419 3.35736 6.27049C3.35654 6.35678 3.3904 6.43979 3.45133 6.50089L4.60567 7.66756C4.72466 7.78669 4.91694 7.78921 5.039 7.67323C5.94087 6.85656 7.11398 6.40406 8.33067 6.40356ZM10.6437 8.95738C10.6454 9.04389 10.6114 9.12729 10.5497 9.18789L8.55233 11.2036C8.49378 11.2628 8.41396 11.2961 8.33067 11.2961C8.24738 11.2961 8.16755 11.2628 8.109 11.2036L6.11133 9.18789C6.04962 9.12724 6.01567 9.04381 6.0175 8.95731C6.01933 8.8708 6.05678 8.78888 6.121 8.73089C7.39657 7.65201 9.26476 7.65201 10.5403 8.73089C10.6045 8.78893 10.6419 8.87087 10.6437 8.95738Z" fill="black"/>
</svg>
